<?xml version="1.0" encoding="UTF-8"?>
<svg width="250px" height="250px" viewBox="0 0 250 250" version="1.1" xmlns="http://www.w3.org/2000/svg" xmlns:xlink="http://www.w3.org/1999/xlink">
    <!-- Generator: Sketch 55.2 (78181) - https://sketchapp.com -->
    <title>logo-square</title>
    <desc>Created with Sketch.</desc>
    <g id="logo-square" stroke="none" stroke-width="1" fill="none" fill-rule="evenodd">
        <g id="Group-Copy-3" transform="translate(22.000000, 74.000000)" fill="#2A2A2A">
            <polygon id="Path-Copy-2" points="103.951855 96.0408163 128.03375 72.7755102 135 79.5263149 103.951855 110 73 79.5263149 80.6365817 72"></polygon>
            <polygon id="Path-Copy-5" opacity="0.628836496" points="174.951855 24.0408163 199.03375 0.775510204 206 7.52631489 174.951855 38 144 7.52631489 151.636582 -3.37507799e-14"></polygon>
            <polygon id="Path-Copy-8" opacity="0.628836496" points="30.9518552 24.0408163 55.0337496 0.775510204 62 7.52631489 30.9518552 38 -1.65201186e-13 7.52631489 7.63658169 -3.37507799e-14"></polygon>
            <polygon id="Path-Copy-3" opacity="0.88109189" points="136.951855 60.0408163 161.03375 36.7755102 168 43.5263149 136.951855 74 106 43.5263149 113.636582 36"></polygon>
            <polygon id="Path-Copy-11" opacity="0.628836496" points="103.951855 24.0408163 128.03375 0.775510204 135 7.52631489 103.951855 38 73 7.52631489 80.6365817 -3.37507799e-14"></polygon>
            <polygon id="Path-Copy-4" opacity="0.88109189" points="67.9518552 60.0408163 92.0337496 36.7755102 99 43.5263149 67.9518552 74 37 43.5263149 44.6365817 36"></polygon>
        </g>
        <g id="Group-Copy-4" transform="translate(22.000000, 74.000000)" fill="#2A2A2A">
            <polygon id="Path-Copy-2" points="103.951855 96.0408163 128.03375 72.7755102 135 79.5263149 103.951855 110 73 79.5263149 80.6365817 72"></polygon>
            <polygon id="Path-Copy-5" opacity="0.628836496" points="174.951855 24.0408163 199.03375 0.775510204 206 7.52631489 174.951855 38 144 7.52631489 151.636582 -3.37507799e-14"></polygon>
            <polygon id="Path-Copy-8" opacity="0.628836496" points="30.9518552 24.0408163 55.0337496 0.775510204 62 7.52631489 30.9518552 38 -1.65201186e-13 7.52631489 7.63658169 -3.37507799e-14"></polygon>
            <polygon id="Path-Copy-3" opacity="0.88109189" points="136.951855 60.0408163 161.03375 36.7755102 168 43.5263149 136.951855 74 106 43.5263149 113.636582 36"></polygon>
            <polygon id="Path-Copy-11" opacity="0.628836496" points="103.951855 24.0408163 128.03375 0.775510204 135 7.52631489 103.951855 38 73 7.52631489 80.6365817 -3.37507799e-14"></polygon>
            <polygon id="Path-Copy-4" opacity="0.88109189" points="67.9518552 60.0408163 92.0337496 36.7755102 99 43.5263149 67.9518552 74 37 43.5263149 44.6365817 36"></polygon>
        </g>
    </g>
</svg>