<?xml version="1.0" encoding="UTF-8"?>
<svg width="250px" height="250px" viewBox="0 0 250 250" version="1.1" xmlns="http://www.w3.org/2000/svg" xmlns:xlink="http://www.w3.org/1999/xlink">
    <!-- Generator: Sketch 55.2 (78181) - https://sketchapp.com -->
    <title>logo</title>
    <desc>Created with Sketch.</desc>
    <g id="logo" stroke="none" stroke-width="1" fill="none" fill-rule="evenodd">
        <rect fill="#FFFFFF" x="0" y="0" width="250" height="250"></rect>
        <g id="Group" transform="translate(25.000000, 72.000000)" fill="#2A2A2A">
            <polygon id="Path-Copy-2" points="99.9534083 93.7755102 123.258467 71.7346939 130 78.1301931 99.9534083 107 70 78.1301931 77.3902403 71"></polygon>
            <polygon id="Path-Copy-5" opacity="0.628836496" points="169.953408 22.7755102 193.258467 0.734693878 200 7.13019305 169.953408 36 140 7.13019305 147.39024 -3.19744231e-14"></polygon>
            <polygon id="Path-Copy-8" opacity="0.628836496" points="29.9534083 23.7755102 53.2584673 1.73469388 60 8.13019305 29.9534083 37 -1.59872116e-13 8.13019305 7.39024035 1"></polygon>
            <polygon id="Path-Copy-3" opacity="0.88109189" points="134.953408 58.7755102 158.258467 36.7346939 165 43.1301931 134.953408 72 105 43.1301931 112.39024 36"></polygon>
            <polygon id="Path-Copy-11" opacity="0.628836496" points="99.9534083 22.7755102 123.258467 0.734693878 130 7.13019305 99.9534083 36 70 7.13019305 77.3902403 -3.19744231e-14"></polygon>
            <polygon id="Path-Copy-4" opacity="0.88109189" points="64.9534083 58.7755102 88.2584673 36.7346939 95 43.1301931 64.9534083 72 35 43.1301931 42.3902403 36"></polygon>
        </g>
    </g>
</svg>